<?xml version="1.0" standalone="no"?>
<!DOCTYPE svg PUBLIC "-//W3C//DTD SVG 20010904//EN"
 "http://www.w3.org/TR/2001/REC-SVG-20010904/DTD/svg10.dtd">
<svg version="1.0" xmlns="http://www.w3.org/2000/svg"
 width="512.000000pt" height="512.000000pt" viewBox="0 0 512.000000 512.000000"
 preserveAspectRatio="xMidYMid meet">

<g transform="translate(0.000000,512.000000) scale(0.100000,-0.100000)"
fill="#ff0000" stroke="none">
<path d="M765 4473 c-70 -10 -191 -45 -265 -77 -224 -97 -395 -283 -461 -500
-31 -101 -45 -264 -31 -348 45 -262 281 -425 727 -504 107 -19 324 -42 330
-35 3 2 5 109 5 237 0 234 4 270 45 367 6 15 -1 17 -86 17 -411 0 -625 199
-519 484 44 115 146 238 268 319 31 22 59 41 61 43 5 4 -29 3 -74 -3z"/>
<path d="M4280 4477 c3 -3 31 -22 62 -44 163 -109 276 -273 294 -427 8 -66
-14 -146 -55 -202 -77 -107 -266 -174 -490 -174 -85 0 -92 -2 -86 -17 41 -97
45 -133 45 -367 0 -128 2 -235 5 -237 6 -7 223 16 330 35 446 79 682 242 727
504 14 84 0 247 -31 348 -81 268 -318 481 -618 553 -82 20 -191 37 -183 28z"/>
<path d="M1437 3616 c-68 -19 -115 -62 -142 -131 -14 -36 -16 -114 -13 -665 4
-604 5 -628 25 -702 12 -42 37 -110 56 -150 18 -40 214 -343 434 -673 359
-539 405 -603 444 -625 44 -25 44 -25 319 -25 275 0 275 0 319 25 39 22 85 86
444 625 220 330 416 633 434 673 19 40 44 108 56 150 20 74 21 98 25 702 3
691 5 672 -61 740 -68 69 15 65 -1197 67 -867 1 -1105 -1 -1143 -11z m791
-1293 c48 -23 99 -88 111 -142 22 -103 -26 -196 -124 -242 -54 -25 -110 -24
-170 5 -59 27 -77 46 -104 106 -53 117 11 252 136 286 53 14 101 10 151 -13z
m847 2 c67 -27 125 -115 125 -190 0 -42 -29 -116 -58 -149 -26 -30 -113 -66
-157 -66 -66 1 -141 43 -180 103 -25 39 -35 107 -23 161 8 38 21 60 58 97 67
66 145 81 235 44z"/>
</g>
</svg>
